<?xml version="1.0" encoding="utf-8"?>
<!-- Generator: Adobe Illustrator 16.0.0, SVG Export Plug-In . SVG Version: 6.00 Build 0)  -->
<!DOCTYPE svg PUBLIC "-//W3C//DTD SVG 1.1//EN" "http://www.w3.org/Graphics/SVG/1.1/DTD/svg11.dtd">
<svg version="1.1" id="Layer_1" xmlns="http://www.w3.org/2000/svg" xmlns:xlink="http://www.w3.org/1999/xlink" x="0px" y="0px"
	 width="875.896px" height="456.297px" viewBox="0 0 875.896 456.297" enable-background="new 0 0 875.896 456.297"
	 xml:space="preserve">
<g>
	<path fill="#FAE8DA" d="M875.896,119.698H247.702C245.476,53.312,190.807,0,123.898,0C55.585,0,0,55.585,0,123.915
		c0,68.313,55.585,123.898,123.898,123.898c66.908,0,121.577-53.312,123.804-119.682h628.194V119.698z M123.898,239.366
		c-63.654,0-115.45-51.781-115.45-115.451S60.244,8.448,123.898,8.448c62.25,0,113.113,49.521,115.371,111.25H123.898v8.433H239.27
		C237.012,189.843,186.148,239.366,123.898,239.366z"/>
	<g>
		<path fill="#FAE8DA" d="M158.553,425.971h-25.377v27.404c0,1.139-0.893,1.904-1.902,1.904h-4.596
			c-1.146,0-1.903-0.768-1.903-1.904v-87.166c0-1.02,0.758-1.912,1.903-1.912h31.875c17.314,0,26.607,9.049,26.607,26.498v8.537
			C185.161,416.661,175.868,425.971,158.553,425.971z M176.76,390.795c0-13.115-5.74-18.855-18.989-18.855h-24.595v46.387h24.595
			c13.13,0,18.854-5.865,18.854-18.996L176.76,390.795z"/>
		<path fill="#FAE8DA" d="M268.026,455.28h-53.138c-1.027,0-1.903-0.768-1.903-1.904v-87.166c0-0.9,0.75-1.912,1.903-1.912h52.996
			c1.033,0,2.045,1.01,2.045,1.912v3.82c0,1.145-1.012,1.912-1.903,1.912h-46.647v33.131h38.887c1.112,0,2.021,0.766,2.021,1.9v3.83
			c0,1.025-0.908,1.91-1.911,1.91h-38.997v34.914h46.505c1.034,0,2.046,0.895,2.046,1.92v3.828
			C269.929,454.514,268.918,455.28,268.026,455.28z"/>
		<path fill="#FAE8DA" d="M356.749,455.28h-6.372c-1.168,0-1.784-0.768-2.424-1.904l-15.681-27.531
			c-0.767,0.127-1.65,0.127-2.534,0.127h-24.603v27.404c0,1.139-0.9,1.904-1.793,1.904h-4.849c-1.011,0-1.903-0.768-1.903-1.904
			v-87.166c0-0.9,0.774-1.912,1.903-1.912h32.246c17.315,0,26.379,9.301,26.379,26.641v8.395c0,13.508-5.353,22.051-15.933,25.234
			l16.423,28.811C358.131,454.514,357.61,455.28,356.749,455.28z M348.696,390.938c0-13.012-5.859-18.996-18.958-18.996h-24.745
			v46.387h24.745c13.099,0,18.958-5.732,18.958-18.996V390.938z"/>
		<path fill="#FAE8DA" d="M430.811,455.28H395.88c-1.151,0-1.909-0.768-1.909-1.904v-3.828c0-0.893,0.758-1.92,1.909-1.92h13.25
			V371.94h-11.347c-1.129,0-1.903-0.766-1.903-1.91v-3.822c0-0.9,0.774-1.91,1.903-1.91h30.976c1.019,0,2.053,1.01,2.053,1.91v3.822
			c0,1.145-1.034,1.91-1.935,1.91h-11.322v75.688h13.105c1.035,0,2.054,0.895,2.054,1.92v3.828
			C432.714,454.514,431.695,455.28,430.811,455.28z"/>
		<path fill="#FAE8DA" d="M503.957,456.297h-7.636c-17.205,0-26.379-9.301-26.379-26.514V390.03
			c0-17.441,9.175-26.625,26.379-26.625h7.636c16.445,0,25.479,8.283,26.506,23.703c0,1.145-1.027,1.902-1.92,1.902h-4.823
			c-1.042,0-1.792-0.758-1.919-1.902c-0.908-10.959-6.633-16.053-18.736-16.053h-5.732c-13.13,0-18.988,5.859-18.988,18.855v39.873
			c0,13.012,5.858,18.871,18.988,18.871h5.732c13.012,0,18.989-5.732,18.989-18.871v-17.07h-20.009c-0.907,0-1.91-0.885-1.91-1.91
			v-3.83c0-1.002,0.758-1.9,1.91-1.9h26.498c1.026,0,1.92,0.766,1.92,1.9v22.812C530.463,446.997,521.414,456.297,503.957,456.297z"
			/>
		<path fill="#FAE8DA" d="M590.754,456.297h-7.636c-17.205,0-26.387-9.301-26.387-26.514V390.03
			c0-17.441,9.183-26.625,26.387-26.625h7.636c17.33,0,26.514,9.184,26.514,26.506v39.873
			C617.267,446.997,608.226,456.297,590.754,456.297z M608.857,390.03c0-13.115-5.993-18.975-18.98-18.975h-5.748
			c-13.107,0-18.974,5.859-18.974,18.855v39.873c0,13.012,5.866,18.871,18.974,18.871h5.748c12.987,0,18.839-5.732,18.839-18.871
			L608.857,390.03z"/>
		<path fill="#FAE8DA" d="M702.279,455.28h-6.246c-0.884,0-2.163-0.768-2.803-1.904l-41.286-73.918v73.918
			c0,1.139-0.75,1.904-1.776,1.904h-4.713c-1.162,0-1.903-0.768-1.903-1.904v-87.166c0-0.9,0.741-1.912,1.903-1.912h5.977
			c1.145,0,2.306,0.893,2.938,1.912l41.168,74.164v-74.164c0-0.9,0.893-1.912,1.903-1.912h4.84c0.908,0,1.777,1.01,1.777,1.912
			v87.166C704.056,454.514,703.306,455.28,702.279,455.28z"/>
		<path fill="#FAE8DA" d="M797.509,455.28h-6.127c-1.153,0-1.524-0.768-1.911-1.904l-9.808-26.514h-38.356l-9.562,26.514
			c-0.371,1.139-0.892,1.904-1.902,1.904h-6.263c-1.01,0-1.263-0.768-0.892-1.904l32.625-87.166c0.402-0.9,0.758-1.912,1.918-1.912
			h6.617c1.035,0,1.523,1.01,1.911,1.912l32.767,87.166C798.89,454.514,798.527,455.28,797.509,455.28z M760.533,373.86
			l-16.55,45.367h32.996L760.533,373.86z"/>
		<path fill="#FAE8DA" d="M873.978,455.28H830.52c-1.146,0-1.903-0.768-1.903-1.904v-87.166c0-0.9,0.758-1.912,1.903-1.912h4.722
			c1.025,0,1.769,1.01,1.769,1.912v81.418h36.968c1.146,0,1.919,0.895,1.919,1.92v3.828
			C875.896,454.514,875.123,455.28,873.978,455.28z"/>
	</g>
</g>
</svg>
